<svg xmlns="http://www.w3.org/2000/svg" version="1.1" style="shape-rendering:geometricPrecision; text-rendering:geometricPrecision; image-rendering:optimizeQuality; fill-rule:evenodd; clip-rule:evenodd" xmlns:xlink="http://www.w3.org/1999/xlink" viewBox="32.5 206.44 86 86.06"> <g><path style="opacity:1" fill="#3b9ef1" d="M 57.5,206.5 C 69.1714,206.333 80.8381,206.5 92.5,207C 105.889,209.09 114.389,216.59 118,229.5C 118.667,242.167 118.667,254.833 118,267.5C 114.711,282.784 105.211,290.95 89.5,292C 79.8333,292.667 70.1667,292.667 60.5,292C 43.9939,290.161 34.8272,280.994 33,264.5C 32.0852,252.442 32.4186,240.442 34,228.5C 37.5397,216.496 45.373,209.162 57.5,206.5 Z"></path></g> <g><path style="opacity:1" fill="#f6fafe" d="M 71.5,216.5 C 100.891,215.327 112.391,228.994 106,257.5C 100.034,266.734 93.034,267.734 85,260.5C 76.8983,267.482 69.2316,267.149 62,259.5C 56.5043,245.684 60.8376,236.684 75,232.5C 78.6569,232.994 81.9902,234.327 85,236.5C 85.271,232.87 86.9377,231.87 90,233.5C 90.1667,234.667 90.3333,235.833 90.5,237C 89.4718,243.813 89.3051,250.646 90,257.5C 91.9904,260.722 94.4904,261.222 97.5,259C 103.489,252.494 104.989,244.994 102,236.5C 99.3046,229.137 94.138,224.637 86.5,223C 71.7361,219.963 60.2361,224.796 52,237.5C 44.2806,255.697 49.4472,268.53 67.5,276C 71.1667,276.667 74.8333,276.667 78.5,276C 81.5449,275.086 84.5449,274.419 87.5,274C 89.0074,274.837 89.5074,276.004 89,277.5C 71.1919,285.897 56.8586,281.897 46,265.5C 39.4561,241.237 47.9561,224.904 71.5,216.5 Z"></path></g> <g><path style="opacity:1" fill="#3c9ef1" d="M 71.5,238.5 C 81.6554,237.83 85.4887,242.496 83,252.5C 79.7869,259.482 74.6203,261.315 67.5,258C 62.6653,250.164 63.9986,243.664 71.5,238.5 Z"></path></g> </svg>